<?xml version="1.0" standalone="no"?>
<!DOCTYPE svg PUBLIC "-//W3C//DTD SVG 20010904//EN"
 "http://www.w3.org/TR/2001/REC-SVG-20010904/DTD/svg10.dtd">
<svg version="1.0" xmlns="http://www.w3.org/2000/svg"
 width="1185.000000pt" height="1280.000000pt" viewBox="0 0 1185.000000 1280.000000"
 preserveAspectRatio="xMidYMid meet">
<metadata>
Created by potrace 1.15, written by Peter Selinger 2001-2017
</metadata>
<g transform="translate(0.000000,1280.000000) scale(0.100000,-0.100000)"
fill="#607d8b" stroke="none">
<path d="M4961 12785 c-35 -8 -94 -25 -130 -39 -54 -20 -91 -25 -201 -29 -290
-11 -525 -92 -751 -258 -36 -26 -106 -68 -155 -93 -61 -31 -129 -78 -214 -149
-149 -124 -163 -139 -189 -199 -15 -33 -28 -48 -47 -52 -25 -7 -80 -56 -252
-223 -41 -40 -80 -73 -87 -73 -15 0 -102 -68 -160 -126 -44 -43 -65 -98 -65
-170 0 -52 -45 -159 -90 -214 -45 -55 -62 -84 -99 -176 -16 -39 -47 -102 -70
-140 -23 -38 -47 -86 -53 -106 -19 -66 22 -139 117 -208 20 -15 21 -18 9 -205
-9 -136 -10 -200 -2 -227 8 -26 7 -45 -1 -69 -15 -44 -14 -72 6 -113 15 -32
15 -37 0 -60 -22 -34 -21 -58 4 -90 18 -23 19 -30 9 -61 -6 -19 -9 -49 -5 -65
8 -36 -5 -39 -53 -10 l-33 20 12 -22 c7 -13 21 -36 32 -51 26 -38 14 -46 -17
-12 -31 33 -33 27 -7 -23 10 -20 25 -55 31 -77 7 -22 15 -47 18 -55 3 -9 -7
-5 -23 10 -28 25 -28 25 -13 2 9 -13 26 -30 37 -39 26 -17 18 -36 -12 -28 -12
3 -6 -2 13 -11 19 -9 51 -25 70 -35 19 -11 54 -29 78 -40 29 -14 42 -26 42
-40 0 -27 30 -83 84 -156 44 -60 46 -65 43 -122 -3 -49 -8 -64 -28 -81 -18
-15 -9 -13 37 10 34 16 64 30 66 30 3 0 8 -19 12 -41 5 -32 3 -46 -10 -60 -12
-14 -15 -29 -10 -66 16 -131 24 -374 16 -454 -24 -218 45 -396 198 -511 34
-25 65 -48 70 -50 5 -1 65 -111 134 -244 183 -351 277 -495 422 -651 37 -40
66 -77 64 -83 -4 -13 -157 -85 -2058 -960 l-655 -301 -43 12 c-36 10 -49 9
-87 -6 -86 -32 -195 -165 -270 -329 -100 -215 -300 -1057 -419 -1756 -155
-913 -234 -1839 -272 -3177 l-6 -233 5885 0 5886 0 5 33 c3 17 14 205 26 417
11 212 26 477 32 590 16 253 14 1669 -2 2005 -58 1228 -243 2055 -569 2542
-84 126 -143 174 -247 202 -23 6 -129 50 -235 97 -365 162 -781 331 -1014 411
-55 18 -221 65 -368 103 -309 80 -381 107 -1307 492 -449 186 -546 271 -809
701 -72 119 -127 187 -185 229 -29 21 -48 46 -67 91 -23 54 -30 62 -52 60 -22
-1 -26 4 -36 41 -30 120 -37 666 -9 720 6 11 39 51 73 88 65 71 123 169 148
253 9 28 31 82 50 120 56 111 66 169 73 402 3 114 6 217 6 228 2 110 -24 817
-32 888 -15 124 -65 400 -95 518 -53 210 -135 403 -233 554 -25 39 -60 102
-77 140 -63 143 -164 272 -271 345 -65 45 -150 82 -300 130 l-132 41 -133 115
c-162 138 -244 185 -339 192 -45 3 -85 -1 -124 -12 -56 -17 -60 -16 -123 5
-163 54 -343 71 -462 44z"/>
</g>
</svg>
