<?xml version="1.0" standalone="no"?>
<!DOCTYPE svg PUBLIC "-//W3C//DTD SVG 20010904//EN"
 "http://www.w3.org/TR/2001/REC-SVG-20010904/DTD/svg10.dtd">
<svg version="1.0" xmlns="http://www.w3.org/2000/svg"
 width="1173.000000pt" height="1280.000000pt" viewBox="0 0 1173.000000 1280.000000"
 preserveAspectRatio="xMidYMid meet">
<metadata>
Created by potrace 1.15, written by Peter Selinger 2001-2017
</metadata>
<g transform="translate(0.000000,1280.000000) scale(0.100000,-0.100000)"
fill="#ffffff" stroke="none">
<path d="M2714 12043 c-247 -416 -450 -762 -452 -768 -1 -6 260 -171 580 -367
1240 -755 7797 -4754 7873 -4800 l80 -50 -50 7 c-52 7 -1269 208 -3570 590
-748 124 -1751 291 -2230 370 -478 79 -1589 264 -2469 410 -879 146 -1602 265
-1606 265 -4 0 -10 -24 -14 -52 -14 -112 -846 -5935 -851 -5963 l-7 -30 979
-162 c3183 -529 4562 -758 5228 -868 2215 -367 3708 -615 3729 -621 22 -5 24
-2 35 58 6 35 200 1390 431 3013 281 1965 426 2955 435 2965 7 8 212 349 454
758 414 697 441 746 441 790 l0 47 -2043 1245 c-1123 685 -3029 1847 -4236
2582 -2096 1278 -2196 1338 -2241 1338 l-47 0 -449 -757z m1218 86 c93 -56
168 -105 168 -108 0 -3 -183 -115 -406 -247 l-405 -241 -160 100 c-87 55 -159
102 -159 106 1 6 780 491 790 491 3 0 80 -46 172 -101z m1730 -2337 c1613
-1006 3437 -2143 4053 -2527 616 -384 1130 -704 1142 -712 22 -14 21 -15 -38
-113 l-60 -99 -177 108 c-97 59 -1007 614 -2022 1233 -1015 619 -2774 1691
-3910 2383 -1136 692 -2071 1263 -2078 1270 -10 9 3 39 68 148 45 75 83 137
85 137 3 0 1325 -823 2937 -1828z m-317 1476 c83 -50 156 -97 164 -103 11 -11
-60 -57 -399 -259 -226 -135 -414 -246 -417 -246 -3 0 -79 46 -169 103 -159
99 -164 102 -142 117 156 105 787 488 798 484 8 -3 83 -46 165 -96z m1575
-967 c-1 -7 -817 -494 -837 -499 -12 -3 -313 177 -313 188 0 3 185 120 412
261 l411 256 163 -100 c90 -55 164 -102 164 -106z m1229 -743 c83 -51 151 -95
151 -98 -1 -9 -844 -505 -860 -505 -24 0 -291 168 -281 178 13 13 825 517 833
517 4 0 75 -42 157 -92z m1388 -845 c89 -54 162 -101 163 -105 0 -4 -75 -52
-167 -107 -93 -54 -289 -171 -437 -260 l-269 -161 -159 99 -159 99 318 198
c175 109 367 228 428 266 60 37 112 68 115 68 3 0 78 -44 167 -97z m1553 -953
c0 -6 -868 -524 -885 -528 -15 -4 -309 177 -301 185 3 3 199 126 436 273 l432
269 159 -97 c87 -53 159 -99 159 -102z m-8965 -490 c567 -94 1246 -206 1510
-250 264 -44 809 -134 1210 -200 1214 -201 2090 -346 2690 -445 314 -52 953
-158 1420 -235 468 -77 1014 -168 1215 -200 201 -33 374 -62 386 -65 20 -4 20
-5 -9 -122 -16 -65 -30 -119 -32 -121 -3 -3 -135 17 -2310 348 -291 44 -735
112 -985 150 -1015 154 -1402 213 -1970 300 -327 50 -741 113 -920 140 -179
27 -622 95 -985 150 -363 55 -806 123 -985 150 -909 138 -1314 200 -1317 204
-2 1 0 87 3 189 7 183 8 186 28 182 12 -3 485 -82 1051 -175z m-310 -735 c684
-99 849 -123 1548 -225 149 -22 801 -116 1447 -210 646 -94 1298 -188 1448
-210 149 -22 395 -58 545 -80 149 -22 677 -98 1172 -170 865 -125 1136 -165
1715 -249 146 -22 369 -54 495 -72 127 -18 233 -35 237 -38 4 -4 -12 -88 -36
-186 -90 -363 -590 -2400 -667 -2715 -44 -179 -100 -406 -124 -505 -24 -99
-95 -389 -158 -645 -63 -256 -125 -509 -138 -562 -15 -64 -28 -98 -36 -98 -8
0 -204 34 -436 75 -232 41 -1369 241 -2527 445 -4539 800 -5382 949 -5384 952
-1 2 4 221 11 488 6 267 21 856 33 1310 11 454 25 994 30 1200 5 206 14 560
20 785 5 226 13 504 16 618 l7 208 26 -5 c14 -3 355 -53 756 -111z"/>
<path d="M1756 6322 c-5 -9 -42 -276 -131 -957 -25 -192 -64 -487 -86 -655
-87 -669 -120 -920 -164 -1255 -25 -192 -64 -483 -85 -645 -61 -463 -72 -561
-67 -566 2 -3 150 -29 328 -60 178 -30 603 -102 944 -159 341 -58 805 -136
1030 -174 226 -39 678 -115 1005 -170 327 -56 780 -132 1005 -170 226 -39 678
-115 1005 -170 622 -106 1086 -184 1926 -326 276 -47 513 -85 528 -85 21 0 26
5 26 25 0 13 137 939 305 2057 168 1118 308 2052 312 2074 5 41 5 41 -28 48
-19 3 -272 42 -564 86 -1112 169 -1339 203 -1975 300 -360 55 -864 131 -1120
170 -256 39 -582 88 -725 110 -143 22 -469 71 -725 110 -256 39 -760 115
-1120 170 -360 55 -864 131 -1120 170 -256 39 -472 73 -482 76 -9 2 -19 1 -22
-4z m864 -682 c113 -11 459 -45 770 -75 311 -30 889 -86 1285 -124 814 -80
1532 -149 2220 -216 259 -25 745 -72 1080 -105 336 -33 804 -78 1040 -101 237
-23 431 -42 432 -43 1 -1 -142 -432 -318 -956 -177 -525 -421 -1254 -543
-1620 l-223 -665 -29 3 c-49 4 -2056 191 -2274 212 -113 11 -736 69 -1385 130
-649 61 -1297 122 -1440 135 -143 14 -604 57 -1025 96 -421 39 -770 72 -777
74 -9 3 -9 14 2 47 7 24 37 122 65 218 28 96 69 234 90 305 21 72 206 695 410
1385 435 1472 389 1320 403 1320 7 0 104 -9 217 -20z"/>
</g>
</svg>
